<?xml version="1.0" encoding="UTF-8" standalone="no"?>
<!DOCTYPE svg PUBLIC "-//W3C//DTD SVG 1.1//EN" "http://www.w3.org/Graphics/SVG/1.1/DTD/svg11.dtd">
<svg width="100%" height="100%" viewBox="0 0 422 397" version="1.1" xmlns="http://www.w3.org/2000/svg" xmlns:xlink="http://www.w3.org/1999/xlink" xml:space="preserve" xmlns:serif="http://www.serif.com/" style="fill-rule:evenodd;clip-rule:evenodd;stroke-linecap:round;stroke-linejoin:round;stroke-miterlimit:1.5;">
    <g transform="matrix(1,0,0,1,-891.3,-354.514)">
        <g transform="matrix(2.27775,-1.28416,1.28416,2.27775,324.673,270.26)">
            <path d="M245.333,200.365L251.246,190.471L267.102,196.898L264.337,208.274C269.819,212.479 274.179,218.074 276.891,224.528L289.022,224.711L291.384,241.657L279.665,245.092C278.815,251.8 276.3,257.992 272.543,263.232L278.443,273.818L264.948,284.335L256.612,276.38C251.556,278.708 245.928,280 240,280C238.592,280 237.2,279.927 235.832,279.783L230.033,289.486L214.177,283.059L216.738,272.521C210.694,268.197 205.906,262.23 203.03,255.272L192.851,255.118L190.489,238.173L200.284,235.301C201.141,227.957 203.993,221.218 208.29,215.643L203.244,206.591L216.738,196.073L224.242,203.234C229.078,201.151 234.406,200 240,200C241.808,200 243.588,200.12 245.333,200.365ZM240.998,215.603C254.537,215.603 265.53,226.595 265.53,240.134C265.53,253.674 254.537,264.666 240.998,264.666C227.459,264.666 216.467,253.674 216.467,240.134C216.467,226.595 227.459,215.603 240.998,215.603Z" style="fill:rgb(172,158,159);stroke:rgb(141,141,141);stroke-width:0.38px;"/>
        </g>
        <g transform="matrix(1.91472,0.103733,-0.103733,1.91472,551.91,164.681)">
            <path d="M245.333,200.365L251.246,190.471L267.102,196.898L264.337,208.274C269.819,212.479 274.179,218.074 276.891,224.528L289.022,224.711L291.384,241.657L279.665,245.092C278.815,251.8 276.3,257.992 272.543,263.232L278.443,273.818L264.948,284.335L256.612,276.38C251.556,278.708 245.928,280 240,280C238.592,280 237.2,279.927 235.832,279.783L230.033,289.486L214.177,283.059L216.738,272.521C210.694,268.197 205.906,262.23 203.03,255.272L192.851,255.118L190.489,238.173L200.284,235.301C201.141,227.957 203.993,221.218 208.29,215.643L203.244,206.591L216.738,196.073L224.242,203.234C229.078,201.151 234.406,200 240,200C241.808,200 243.588,200.12 245.333,200.365ZM240.998,215.603C254.537,215.603 265.53,226.595 265.53,240.134C265.53,253.674 254.537,264.666 240.998,264.666C227.459,264.666 216.467,253.674 216.467,240.134C216.467,226.595 227.459,215.603 240.998,215.603Z" style="fill:rgb(172,158,159);stroke:rgb(141,141,141);stroke-width:0.52px;"/>
        </g>
        <g transform="matrix(-0.0075421,1.01239,-1.13451,-0.00845186,1522.71,327.921)">
            <path d="M320.408,193.616L416.846,346.39L223.97,346.39L320.408,193.616Z" style="fill:rgb(92,170,237);stroke:rgb(141,141,141);stroke-width:2.79px;"/>
        </g>
    </g>
</svg>
