<?xml version="1.0" encoding="UTF-8" standalone="no"?>
<!DOCTYPE svg PUBLIC "-//W3C//DTD SVG 1.1//EN" "http://www.w3.org/Graphics/SVG/1.1/DTD/svg11.dtd">
<svg width="100%" height="100%" viewBox="0 0 422 397" version="1.1" xmlns="http://www.w3.org/2000/svg" xmlns:xlink="http://www.w3.org/1999/xlink" xml:space="preserve" xmlns:serif="http://www.serif.com/" style="fill-rule:evenodd;clip-rule:evenodd;stroke-linecap:round;stroke-linejoin:round;stroke-miterlimit:1.5;">
    <g transform="matrix(3.07622,-1.24697,1.24697,3.07622,-817.36,-243.631)">
        <path d="M248.848,200.996C253.762,202.105 258.333,204.119 262.379,206.85L271.435,200.222L281.298,210.085L274.326,219.475C276.517,223.123 278.141,227.149 279.069,231.432L289.815,233.096L289.815,247.045L279.053,248.635C278.091,253.011 276.412,257.118 274.145,260.829L281.757,271.23L271.894,281.093L261.745,273.558C257.819,276.117 253.414,278.001 248.694,279.039L246.904,290.606L232.955,290.606L231.244,279.025C227.003,278.079 223.015,276.458 219.397,274.282L210.092,281.092L200.229,271.229L206.826,262.344C204.077,258.272 202.057,253.668 200.966,248.717L189.255,246.904L189.255,232.955L200.98,231.223C202.049,226.439 203.978,221.979 206.597,218.014L200,209L209.863,199.137L219.031,205.944C222.733,203.655 226.834,201.955 231.209,200.983L233.096,188.791L247.045,188.791L248.848,200.996ZM239.989,214.2C254.28,214.2 265.883,225.803 265.883,240.094C265.883,254.386 254.28,265.989 239.989,265.989C225.697,265.989 214.094,254.386 214.094,240.094C214.094,225.803 225.697,214.2 239.989,214.2Z" style="fill:rgb(172,158,159);stroke:rgb(141,141,141);stroke-width:0.3px;"/>
    </g>
</svg>
